<?xml version="1.0" encoding="UTF-8" standalone="no"?>
<!-- Created with Inkscape (http://www.inkscape.org/) -->

<svg
   width="142.53276mm"
   height="135.70006mm"
   viewBox="0 0 142.53276 135.70004"
   version="1.1"
   id="svg1"
   xml:space="preserve"
   inkscape:export-filename="bitmap.svg"
   inkscape:export-xdpi="25.4"
   inkscape:export-ydpi="25.4"
   sodipodi:docname="logo.svg"
   xmlns:inkscape="http://www.inkscape.org/namespaces/inkscape"
   xmlns:sodipodi="http://sodipodi.sourceforge.net/DTD/sodipodi-0.dtd"
   xmlns:xlink="http://www.w3.org/1999/xlink"
   xmlns="http://www.w3.org/2000/svg"
   xmlns:svg="http://www.w3.org/2000/svg"><sodipodi:namedview
     id="namedview1"
     pagecolor="#ffffff"
     bordercolor="#000000"
     borderopacity="0.25"
     inkscape:showpageshadow="2"
     inkscape:pageopacity="0.0"
     inkscape:pagecheckerboard="0"
     inkscape:deskcolor="#d1d1d1"
     inkscape:document-units="mm"><inkscape:page
       x="0"
       y="-2.2857025e-30"
       width="142.53276"
       height="135.70006"
       id="page1"
       margin="0"
       bleed="0" /></sodipodi:namedview><defs
     id="defs1"><linearGradient
       id="linearGradient1"
       inkscape:collect="always"><stop
         style="stop-color:#1598c1;stop-opacity:1;"
         offset="0"
         id="stop1" /><stop
         style="stop-color:#389e86;stop-opacity:1;"
         offset="0.92405063"
         id="stop2" /></linearGradient><linearGradient
       inkscape:collect="always"
       xlink:href="#linearGradient1"
       id="linearGradient2"
       x1="18.356203"
       y1="48.77951"
       x2="148.56638"
       y2="106.75282"
       gradientUnits="userSpaceOnUse"
       spreadMethod="pad" /></defs><g
     inkscape:label="Layer 1"
     inkscape:groupmode="layer"
     id="layer1"
     transform="translate(-12.194924,-9.9161068)"><path
       id="path110"
       style="fill:url(#linearGradient2);fill-opacity:1;stroke-width:0.326978"
       d="m 16.381032,9.9161068 c -2.319116,0 -4.186108,2.3859452 -4.186108,5.3496842 v 55.965218 a 26.954608,29.488674 0 0 1 6.126067,-0.771782 26.954608,29.488674 0 0 1 26.954357,29.488979 26.954608,29.488674 0 0 1 -26.954357,29.488244 26.954608,29.488674 0 0 1 -6.126067,-0.77177 v 11.60181 c 0,2.96373 1.866992,5.34968 4.186108,5.34968 H 66.494564 A 30.834435,37.578486 0 0 1 64.878879,133.61223 30.834435,37.578486 0 0 1 95.71315,96.033755 30.834435,37.578486 0 0 1 126.548,133.61223 a 30.834435,37.578486 0 0 1 -1.6157,12.00394 h 25.60927 c 2.31912,0 4.18611,-2.38595 4.18611,-5.34968 V 85.643386 a 10.414279,13.830971 0 0 1 -3.87991,0.995579 10.414279,13.830971 0 0 1 -10.41443,-13.83121 10.414279,13.830971 0 0 1 10.41443,-13.831209 10.414279,13.830971 0 0 1 3.87991,0.99629 V 15.265791 c 0,-2.963739 -1.86699,-5.3496842 -4.18611,-5.3496842 H 83.899394 A 16.336125,17.745394 0 0 1 84.482398,14.613144 16.336125,17.745394 0 0 1 68.146411,32.358793 16.336125,17.745394 0 0 1 51.809858,14.613144 16.336125,17.745394 0 0 1 52.392862,9.9161068 Z" /></g></svg>
